# xmcd
#
# Track frame offsets: 
#        150
#        18658
#        36888
#        59403
#        79558
#        98706
#        118040
#        140847
#        161075
#        182292
#
# Disc length: 2726 seconds
#
# Revision: 0
# Processed by: cddbd v1.5.2PL0 Copyright (c) Steve Scherf et al.
# Submitted via: ExactAudioCopyFreeDBPlugin 1.0
#
DISCID=800aa40a
DTITLE=Chrisye - Metropolitan
DYEAR=1984
DGENRE=Pop
TTITLE0=Romeo and Julia '83
TTITLE1=Selamat Jalan Kekasih
TTITLE2=Metropolitan
TTITLE3=Kehadiran
TTITLE4=Kenangan Remaja
TTITLE5=Lagi-Lagi
TTITLE6=Suratmu
TTITLE7=Natalie
TTITLE8=O...Da...Da...(Instrumentalia)
TTITLE9=Pengakuan
EXTD=
EXTT0=
EXTT1=
EXTT2=
EXTT3=
EXTT4=
EXTT5=
EXTT6=
EXTT7=
EXTT8=
EXTT9=
PLAYORDER=
